<svg version="1.1" xmlns="http://www.w3.org/2000/svg" xmlns:xlink="http://www.w3.org/1999/xlink" viewBox="0 0 226 226"><g fill="none" fill-rule="nonzero" stroke="none" stroke-width="1" stroke-linecap="butt" stroke-linejoin="miter" stroke-miterlimit="10" stroke-dasharray="" stroke-dashoffset="0" font-family="none" font-weight="none" font-size="none" text-anchor="none" style="mix-blend-mode: normal"><path d="M0,226v-226h226v226z" fill="none"></path><g fill="#3498db"><path d="M113,207.16667c-51.79167,0 -94.16667,-42.375 -94.16667,-94.16667c0,-51.79167 42.375,-94.16667 94.16667,-94.16667c51.79167,0 94.16667,42.375 94.16667,94.16667c0,51.79167 -42.375,94.16667 -94.16667,94.16667zM113,37.66667c-41.43333,0 -75.33333,33.9 -75.33333,75.33333c0,41.43333 33.9,75.33333 75.33333,75.33333c41.43333,0 75.33333,-33.9 75.33333,-75.33333c0,-41.43333 -33.9,-75.33333 -75.33333,-75.33333zM113,127.125c8.00417,0 14.125,-6.12083 14.125,-14.125c0,-8.00417 -6.12083,-14.125 -14.125,-14.125c-8.00417,0 -14.125,6.12083 -14.125,14.125c0,8.00417 6.12083,14.125 14.125,14.125z"></path></g></g></svg>